<svg width="111" height="96" viewBox="0 0 111 96" fill="none" xmlns="http://www.w3.org/2000/svg">
<path d="M99.0009 9.40713C97.8472 6.00353 94.6166 3.58063 90.8092 3.58063H27.3522C23.5448 3.58063 20.372 6.00353 19.1605 9.40713L7.16138 43.9623V90.1129C7.16138 93.2857 9.75734 95.8817 12.9302 95.8817H18.699C21.8719 95.8817 24.4678 93.2857 24.4678 90.1129V84.3441H93.6936V90.1129C93.6936 93.2857 96.2896 95.8817 99.4624 95.8817H105.231C108.404 95.8817 111 93.2857 111 90.1129V43.9623L99.0009 9.40713ZM27.3522 67.0376C22.5641 67.0376 18.699 63.1725 18.699 58.3844C18.699 53.5963 22.5641 49.7312 27.3522 49.7312C32.1404 49.7312 36.0055 53.5963 36.0055 58.3844C36.0055 63.1725 32.1404 67.0376 27.3522 67.0376ZM90.8092 67.0376C86.0211 67.0376 82.156 63.1725 82.156 58.3844C82.156 53.5963 86.0211 49.7312 90.8092 49.7312C95.5973 49.7312 99.4624 53.5963 99.4624 58.3844C99.4624 63.1725 95.5973 67.0376 90.8092 67.0376ZM18.699 38.1935L27.3522 12.2339H90.8092L99.4624 38.1935H18.699Z" fill="#D5A732" fill-opacity="0.7"/>
<path d="M91.8396 5.82651C90.6858 2.4229 87.4553 0 83.6478 0H20.1909C16.3834 0 13.2106 2.4229 11.9991 5.82651L0 40.3817V86.5323C0 89.7051 2.59597 92.3011 5.76882 92.3011H11.5376C14.7105 92.3011 17.3064 89.7051 17.3064 86.5323V80.7634H86.5323V86.5323C86.5323 89.7051 89.1282 92.3011 92.3011 92.3011H98.0699C101.243 92.3011 103.839 89.7051 103.839 86.5323V40.3817L91.8396 5.82651ZM20.1909 63.457C15.4027 63.457 11.5376 59.5919 11.5376 54.8038C11.5376 50.0156 15.4027 46.1505 20.1909 46.1505C24.979 46.1505 28.8441 50.0156 28.8441 54.8038C28.8441 59.5919 24.979 63.457 20.1909 63.457ZM83.6478 63.457C78.8597 63.457 74.9946 59.5919 74.9946 54.8038C74.9946 50.0156 78.8597 46.1505 83.6478 46.1505C88.436 46.1505 92.3011 50.0156 92.3011 54.8038C92.3011 59.5919 88.436 63.457 83.6478 63.457ZM11.5376 34.6129L20.1909 8.65322H83.6478L92.3011 34.6129H11.5376Z" fill="black"/>
</svg>
