<svg width="62" height="54" viewBox="0 0 62 54" fill="none" xmlns="http://www.w3.org/2000/svg">
<path d="M55.2978 5.25445C54.6533 3.35333 52.8489 2 50.7222 2H15.2778C13.1511 2 11.3789 3.35333 10.7022 5.25445L4 24.5556V50.3333C4 52.1056 5.45 53.5556 7.22222 53.5556H10.4444C12.2167 53.5556 13.6667 52.1056 13.6667 50.3333V47.1111H52.3333V50.3333C52.3333 52.1056 53.7833 53.5556 55.5556 53.5556H58.7778C60.55 53.5556 62 52.1056 62 50.3333V24.5556L55.2978 5.25445ZM15.2778 37.4444C12.6033 37.4444 10.4444 35.2856 10.4444 32.6111C10.4444 29.9367 12.6033 27.7778 15.2778 27.7778C17.9522 27.7778 20.1111 29.9367 20.1111 32.6111C20.1111 35.2856 17.9522 37.4444 15.2778 37.4444ZM50.7222 37.4444C48.0478 37.4444 45.8889 35.2856 45.8889 32.6111C45.8889 29.9367 48.0478 27.7778 50.7222 27.7778C53.3967 27.7778 55.5556 29.9367 55.5556 32.6111C55.5556 35.2856 53.3967 37.4444 50.7222 37.4444ZM10.4444 21.3333L15.2778 6.83333H50.7222L55.5556 21.3333H10.4444Z" fill="#D5A732" fill-opacity="0.7"/>
<path d="M51.2978 3.25445C50.6533 1.35333 48.8489 0 46.7222 0H11.2778C9.15111 0 7.37889 1.35333 6.70222 3.25445L0 22.5556V48.3333C0 50.1056 1.45 51.5556 3.22222 51.5556H6.44444C8.21667 51.5556 9.66667 50.1056 9.66667 48.3333V45.1111H48.3333V48.3333C48.3333 50.1056 49.7833 51.5556 51.5556 51.5556H54.7778C56.55 51.5556 58 50.1056 58 48.3333V22.5556L51.2978 3.25445ZM11.2778 35.4444C8.60333 35.4444 6.44444 33.2856 6.44444 30.6111C6.44444 27.9367 8.60333 25.7778 11.2778 25.7778C13.9522 25.7778 16.1111 27.9367 16.1111 30.6111C16.1111 33.2856 13.9522 35.4444 11.2778 35.4444ZM46.7222 35.4444C44.0478 35.4444 41.8889 33.2856 41.8889 30.6111C41.8889 27.9367 44.0478 25.7778 46.7222 25.7778C49.3967 25.7778 51.5556 27.9367 51.5556 30.6111C51.5556 33.2856 49.3967 35.4444 46.7222 35.4444ZM6.44444 19.3333L11.2778 4.83333H46.7222L51.5556 19.3333H6.44444Z" fill="black"/>
</svg>
