<svg width="15" height="15" viewBox="0 0 15 15" fill="none" xmlns="http://www.w3.org/2000/svg">
<path d="M7.39984 0C3.31104 0 0 3.36 0 7.5C0 11.64 3.31104 15 7.39984 15C11.496 15 14.8145 11.64 14.8145 7.5C14.8145 3.36 11.496 0 7.39984 0ZM7.40724 13.5C4.13324 13.5 1.48145 10.815 1.48145 7.5C1.48145 4.185 4.13324 1.5 7.40724 1.5C10.6812 1.5 13.333 4.185 13.333 7.5C13.333 10.815 10.6812 13.5 7.40724 13.5Z" fill="#D5A732"/>
<path d="M7.77808 3.75H6.66699V8.25L10.5558 10.6125L11.1113 9.69L7.77808 7.6875V3.75Z" fill="#D5A732"/>
</svg>
