<svg width="12" height="12" viewBox="0 0 12 12" fill="none" xmlns="http://www.w3.org/2000/svg">
<path d="M5.7183 0.25C2.57017 0.25 0.020874 2.805 0.020874 5.95312C0.020874 9.10125 2.57017 11.6562 5.7183 11.6562C8.87212 11.6562 11.4271 9.10125 11.4271 5.95312C11.4271 2.805 8.87212 0.25 5.7183 0.25ZM5.724 10.5156C3.20322 10.5156 1.1615 8.47391 1.1615 5.95312C1.1615 3.43234 3.20322 1.39062 5.724 1.39062C8.24478 1.39062 10.2865 3.43234 10.2865 5.95312C10.2865 8.47391 8.24478 10.5156 5.724 10.5156Z" fill="#D5A732"/>
<path d="M6.00928 3.10156H5.15381V6.52344L8.14795 8.31992L8.57568 7.61844L6.00928 6.0957V3.10156Z" fill="#D5A732"/>
</svg>
