<svg width="16" height="17" viewBox="0 0 16 17" fill="none" xmlns="http://www.w3.org/2000/svg">
<path d="M7.992 0C3.576 0 0 3.62888 0 8.10018C0 12.5715 3.576 16.2004 7.992 16.2004C12.416 16.2004 16 12.5715 16 8.10018C16 3.62888 12.416 0 7.992 0ZM8 14.5803C4.464 14.5803 1.6 11.6805 1.6 8.10018C1.6 4.5199 4.464 1.62004 8 1.62004C11.536 1.62004 14.4 4.5199 14.4 8.10018C14.4 11.6805 11.536 14.5803 8 14.5803Z" fill="#D5A732"/>
<path d="M8.40044 4.05029H7.20044V8.9104L11.4004 11.462L12.0004 10.4656L8.40044 8.30289V4.05029Z" fill="#D5A732"/>
</svg>
