<svg width="12" height="12" viewBox="0 0 12 12" fill="none" xmlns="http://www.w3.org/2000/svg">
<path d="M5.7183 0.489578C2.57017 0.489578 0.020874 3.04458 0.020874 6.1927C0.020874 9.34083 2.57017 11.8958 5.7183 11.8958C8.87212 11.8958 11.4271 9.34083 11.4271 6.1927C11.4271 3.04458 8.87212 0.489578 5.7183 0.489578ZM5.724 10.7552C3.20322 10.7552 1.1615 8.71348 1.1615 6.1927C1.1615 3.67192 3.20322 1.6302 5.724 1.6302C8.24478 1.6302 10.2865 3.67192 10.2865 6.1927C10.2865 8.71348 8.24478 10.7552 5.724 10.7552Z" fill="#D5A732"/>
<path d="M6.00928 3.34115H5.15381V6.76302L8.14795 8.55951L8.57568 7.85802L6.00928 6.33529V3.34115Z" fill="#D5A732"/>
</svg>
