<svg width="21" height="20" viewBox="0 0 21 20" fill="none" xmlns="http://www.w3.org/2000/svg">
<path d="M14.4936 12.5786H13.5895L13.269 12.2699C14.3906 10.9663 15.0659 9.27387 15.0659 7.43282C15.0659 3.32762 11.7354 0 7.62658 0C3.51778 0 0.187256 3.32762 0.187256 7.43282C0.187256 11.538 3.51778 14.8656 7.62658 14.8656C9.46924 14.8656 11.1631 14.191 12.4679 13.0703L12.7769 13.3905V14.2939L18.4994 20L20.2048 18.2962L14.4936 12.5786ZM7.62658 12.5786C4.77675 12.5786 2.47628 10.2802 2.47628 7.43282C2.47628 4.58548 4.77675 2.28702 7.62658 2.28702C10.4764 2.28702 12.7769 4.58548 12.7769 7.43282C12.7769 10.2802 10.4764 12.5786 7.62658 12.5786Z" fill="black" fill-opacity="0.5"/>
</svg>
