<svg width="368" height="208" viewBox="0 0 368 208" fill="none" xmlns="http://www.w3.org/2000/svg">
<ellipse cx="301.917" cy="149.018" rx="9.98073" ry="10.3966" transform="rotate(-180 301.917 149.018)" fill="#B272D0" fill-opacity="0.19"/>
<circle cx="301.501" cy="38.9872" r="10.3966" transform="rotate(-180 301.501 38.9872)" fill="#B272D0" fill-opacity="0.19"/>
<circle cx="301.501" cy="75.3753" r="10.3966" transform="rotate(-180 301.501 75.3753)" fill="#B272D0" fill-opacity="0.19"/>
<circle cx="301.501" cy="111.763" r="10.3966" transform="rotate(-180 301.501 111.763)" fill="#B272D0" fill-opacity="0.19"/>
<ellipse cx="47.2009" cy="149.884" rx="9.98073" ry="10.3966" transform="rotate(-180 47.2009 149.884)" fill="#B272D0" fill-opacity="0.19"/>
<circle cx="46.7851" cy="39.8536" r="10.3966" transform="rotate(-180 46.7851 39.8536)" fill="#B272D0" fill-opacity="0.19"/>
<circle cx="46.7851" cy="76.2417" r="10.3966" transform="rotate(-180 46.7851 76.2417)" fill="#B272D0" fill-opacity="0.19"/>
<circle cx="46.7851" cy="112.63" r="10.3966" transform="rotate(-180 46.7851 112.63)" fill="#B272D0" fill-opacity="0.19"/>
<circle cx="245.62" cy="166.779" r="15.1617" transform="rotate(-180 245.62 166.779)" fill="#B272D0" fill-opacity="0.19"/>
<circle cx="245.62" cy="15.1617" r="15.1617" transform="rotate(-180 245.62 15.1617)" fill="#B272D0" fill-opacity="0.19"/>
<circle cx="245.62" cy="65.4119" r="15.1617" transform="rotate(-180 245.62 65.4119)" fill="#B272D0" fill-opacity="0.19"/>
<circle cx="245.62" cy="116.528" r="15.1617" transform="rotate(-180 245.62 116.528)" fill="#B272D0" fill-opacity="0.19"/>
<circle cx="102.667" cy="166.779" r="15.1617" transform="rotate(-180 102.667 166.779)" fill="#B272D0" fill-opacity="0.19"/>
<circle cx="102.667" cy="15.1617" r="15.1617" transform="rotate(-180 102.667 15.1617)" fill="#B272D0" fill-opacity="0.19"/>
<circle cx="102.667" cy="65.4119" r="15.1617" transform="rotate(-180 102.667 65.4119)" fill="#B272D0" fill-opacity="0.19"/>
<circle cx="102.667" cy="116.528" r="15.1617" transform="rotate(-180 102.667 116.528)" fill="#B272D0" fill-opacity="0.19"/>
<circle cx="150.318" cy="166.779" r="15.1617" transform="rotate(-180 150.318 166.779)" fill="#B272D0" fill-opacity="0.19"/>
<circle cx="150.318" cy="15.1617" r="15.1617" transform="rotate(-180 150.318 15.1617)" fill="#B272D0" fill-opacity="0.19"/>
<circle cx="150.318" cy="65.4119" r="15.1617" transform="rotate(-180 150.318 65.4119)" fill="#B272D0" fill-opacity="0.19"/>
<circle cx="150.318" cy="116.528" r="15.1617" transform="rotate(-180 150.318 116.528)" fill="#B272D0" fill-opacity="0.19"/>
<circle cx="197.969" cy="166.779" r="15.1617" transform="rotate(-180 197.969 166.779)" fill="#B272D0" fill-opacity="0.19"/>
<circle cx="197.969" cy="15.1617" r="15.1617" transform="rotate(-180 197.969 15.1617)" fill="#B272D0" fill-opacity="0.19"/>
<circle cx="197.969" cy="65.4119" r="15.1617" transform="rotate(-180 197.969 65.4119)" fill="#B272D0" fill-opacity="0.19"/>
<circle cx="197.969" cy="116.528" r="15.1617" transform="rotate(-180 197.969 116.528)" fill="#B272D0" fill-opacity="0.19"/>
<ellipse cx="10.8127" cy="149.884" rx="9.98073" ry="10.3966" transform="rotate(-180 10.8127 149.884)" fill="#B272D0" fill-opacity="0.19"/>
<circle cx="10.3969" cy="39.8536" r="10.3966" transform="rotate(-180 10.3969 39.8536)" fill="#B272D0" fill-opacity="0.19"/>
<circle cx="10.3969" cy="76.2417" r="10.3966" transform="rotate(-180 10.3969 76.2417)" fill="#B272D0" fill-opacity="0.19"/>
<circle cx="10.3969" cy="112.63" r="10.3966" transform="rotate(-180 10.3969 112.63)" fill="#B272D0" fill-opacity="0.19"/>
<ellipse cx="338.305" cy="149.018" rx="9.98073" ry="10.3966" transform="rotate(-180 338.305 149.018)" fill="#B272D0" fill-opacity="0.19"/>
<circle cx="337.89" cy="38.9872" r="10.3966" transform="rotate(-180 337.89 38.9872)" fill="#B272D0" fill-opacity="0.19"/>
<circle cx="337.89" cy="75.3753" r="10.3966" transform="rotate(-180 337.89 75.3753)" fill="#B272D0" fill-opacity="0.19"/>
<circle cx="337.89" cy="111.763" r="10.3966" transform="rotate(-180 337.89 111.763)" fill="#B272D0" fill-opacity="0.19"/>
<ellipse cx="320.305" cy="165.544" rx="9.98073" ry="10.3966" transform="rotate(-180 320.305 165.544)" fill="#D4A732" fill-opacity="0.21"/>
<circle cx="319.89" cy="55.5437" r="10.3966" transform="rotate(-180 319.89 55.5437)" fill="#D4A732" fill-opacity="0.21"/>
<circle cx="319.89" cy="91.5437" r="10.3966" transform="rotate(-180 319.89 91.5437)" fill="#D4A732" fill-opacity="0.21"/>
<circle cx="319.89" cy="127.544" r="10.3966" transform="rotate(-180 319.89 127.544)" fill="#D4A732" fill-opacity="0.21"/>
<ellipse cx="67.3054" cy="165.544" rx="9.98073" ry="10.3966" transform="rotate(-180 67.3054 165.544)" fill="#D4A732" fill-opacity="0.21"/>
<circle cx="67.8895" cy="55.5437" r="10.3966" transform="rotate(-180 67.8895 55.5437)" fill="#D4A732" fill-opacity="0.21"/>
<circle cx="67.8895" cy="91.5437" r="10.3966" transform="rotate(-180 67.8895 91.5437)" fill="#D4A732" fill-opacity="0.21"/>
<circle cx="67.8895" cy="132.544" r="10.3966" transform="rotate(-180 67.8895 132.544)" fill="#D4A732" fill-opacity="0.21"/>
<circle cx="269.62" cy="192.779" r="15.1617" transform="rotate(-180 269.62 192.779)" fill="#D4A732" fill-opacity="0.21"/>
<circle cx="269.62" cy="41.1617" r="15.1617" transform="rotate(-180 269.62 41.1617)" fill="#D4A732" fill-opacity="0.21"/>
<circle cx="269.62" cy="91.4119" r="15.1617" transform="rotate(-180 269.62 91.4119)" fill="#D4A732" fill-opacity="0.21"/>
<circle cx="269.62" cy="142.528" r="15.1617" transform="rotate(-180 269.62 142.528)" fill="#D4A732" fill-opacity="0.21"/>
<circle cx="126.667" cy="192.779" r="15.1617" transform="rotate(-180 126.667 192.779)" fill="#D4A732" fill-opacity="0.21"/>
<circle cx="126.667" cy="41.1617" r="15.1617" transform="rotate(-180 126.667 41.1617)" fill="#D4A732" fill-opacity="0.21"/>
<circle cx="126.667" cy="91.4119" r="15.1617" transform="rotate(-180 126.667 91.4119)" fill="#D4A732" fill-opacity="0.21"/>
<circle cx="126.667" cy="142.528" r="15.1617" transform="rotate(-180 126.667 142.528)" fill="#D4A732" fill-opacity="0.21"/>
<circle cx="174.318" cy="192.779" r="15.1617" transform="rotate(-180 174.318 192.779)" fill="#D4A732" fill-opacity="0.21"/>
<circle cx="174.318" cy="41.1617" r="15.1617" transform="rotate(-180 174.318 41.1617)" fill="#D4A732" fill-opacity="0.21"/>
<circle cx="174.318" cy="91.4119" r="15.1617" transform="rotate(-180 174.318 91.4119)" fill="#D4A732" fill-opacity="0.21"/>
<circle cx="174.318" cy="142.528" r="15.1617" transform="rotate(-180 174.318 142.528)" fill="#D4A732" fill-opacity="0.21"/>
<circle cx="221.969" cy="192.779" r="15.1617" transform="rotate(-180 221.969 192.779)" fill="#D4A732" fill-opacity="0.21"/>
<circle cx="221.969" cy="41.1617" r="15.1617" transform="rotate(-180 221.969 41.1617)" fill="#D4A732" fill-opacity="0.21"/>
<circle cx="221.969" cy="91.4119" r="15.1617" transform="rotate(-180 221.969 91.4119)" fill="#D4A732" fill-opacity="0.21"/>
<circle cx="221.969" cy="142.528" r="15.1617" transform="rotate(-180 221.969 142.528)" fill="#D4A732" fill-opacity="0.21"/>
<ellipse cx="25.3054" cy="165.544" rx="9.98073" ry="10.3966" transform="rotate(-180 25.3054 165.544)" fill="#D4A732" fill-opacity="0.21"/>
<circle cx="25.8895" cy="55.5437" r="10.3966" transform="rotate(-180 25.8895 55.5437)" fill="#D4A732" fill-opacity="0.21"/>
<circle cx="25.8895" cy="91.5437" r="10.3966" transform="rotate(-180 25.8895 91.5437)" fill="#D4A732" fill-opacity="0.21"/>
<circle cx="25.8895" cy="132.544" r="10.3966" transform="rotate(-180 25.8895 132.544)" fill="#D4A732" fill-opacity="0.21"/>
<ellipse cx="357.305" cy="165.544" rx="9.98073" ry="10.3966" transform="rotate(-180 357.305 165.544)" fill="#D4A732" fill-opacity="0.21"/>
<circle cx="356.89" cy="55.5437" r="10.3966" transform="rotate(-180 356.89 55.5437)" fill="#D4A732" fill-opacity="0.21"/>
<circle cx="356.89" cy="91.5437" r="10.3966" transform="rotate(-180 356.89 91.5437)" fill="#D4A732" fill-opacity="0.21"/>
<circle cx="356.89" cy="128.544" r="10.3966" transform="rotate(-180 356.89 128.544)" fill="#D4A732" fill-opacity="0.21"/>
</svg>
