<svg width="368" height="208" viewBox="0 0 368 208" fill="none" xmlns="http://www.w3.org/2000/svg">
<ellipse cx="65.3689" cy="58.9225" rx="9.98073" ry="10.3966" fill="#B272D0" fill-opacity="0.19"/>
<circle cx="65.7848" cy="168.953" r="10.3966" fill="#B272D0" fill-opacity="0.19"/>
<circle cx="65.7848" cy="132.565" r="10.3966" fill="#B272D0" fill-opacity="0.19"/>
<circle cx="65.7848" cy="96.1769" r="10.3966" fill="#B272D0" fill-opacity="0.19"/>
<ellipse cx="320.085" cy="58.0563" rx="9.98073" ry="10.3966" fill="#B272D0" fill-opacity="0.19"/>
<circle cx="320.501" cy="168.087" r="10.3966" fill="#B272D0" fill-opacity="0.19"/>
<circle cx="320.501" cy="131.699" r="10.3966" fill="#B272D0" fill-opacity="0.19"/>
<circle cx="320.501" cy="95.3107" r="10.3966" fill="#B272D0" fill-opacity="0.19"/>
<circle cx="121.666" cy="41.1617" r="15.1617" fill="#B272D0" fill-opacity="0.19"/>
<circle cx="121.666" cy="192.779" r="15.1617" fill="#B272D0" fill-opacity="0.19"/>
<circle cx="121.666" cy="142.528" r="15.1617" fill="#B272D0" fill-opacity="0.19"/>
<circle cx="121.666" cy="91.4119" r="15.1617" fill="#B272D0" fill-opacity="0.19"/>
<circle cx="264.619" cy="41.1617" r="15.1617" fill="#B272D0" fill-opacity="0.19"/>
<circle cx="264.619" cy="192.779" r="15.1617" fill="#B272D0" fill-opacity="0.19"/>
<circle cx="264.619" cy="142.528" r="15.1617" fill="#B272D0" fill-opacity="0.19"/>
<circle cx="264.619" cy="91.4119" r="15.1617" fill="#B272D0" fill-opacity="0.19"/>
<circle cx="216.968" cy="41.1617" r="15.1617" fill="#B272D0" fill-opacity="0.19"/>
<circle cx="216.968" cy="192.779" r="15.1617" fill="#B272D0" fill-opacity="0.19"/>
<circle cx="216.968" cy="142.528" r="15.1617" fill="#B272D0" fill-opacity="0.19"/>
<circle cx="216.968" cy="91.4119" r="15.1617" fill="#B272D0" fill-opacity="0.19"/>
<circle cx="169.317" cy="41.1617" r="15.1617" fill="#B272D0" fill-opacity="0.19"/>
<circle cx="169.317" cy="192.779" r="15.1617" fill="#B272D0" fill-opacity="0.19"/>
<circle cx="169.317" cy="142.528" r="15.1617" fill="#B272D0" fill-opacity="0.19"/>
<circle cx="169.317" cy="91.4119" r="15.1617" fill="#B272D0" fill-opacity="0.19"/>
<ellipse cx="356.473" cy="58.0563" rx="9.98073" ry="10.3966" fill="#B272D0" fill-opacity="0.19"/>
<circle cx="356.889" cy="168.087" r="10.3966" fill="#B272D0" fill-opacity="0.19"/>
<circle cx="356.889" cy="131.699" r="10.3966" fill="#B272D0" fill-opacity="0.19"/>
<circle cx="356.889" cy="95.3107" r="10.3966" fill="#B272D0" fill-opacity="0.19"/>
<ellipse cx="28.9807" cy="58.9225" rx="9.98073" ry="10.3966" fill="#B272D0" fill-opacity="0.19"/>
<circle cx="29.3966" cy="168.953" r="10.3966" fill="#B272D0" fill-opacity="0.19"/>
<circle cx="29.3966" cy="132.565" r="10.3966" fill="#B272D0" fill-opacity="0.19"/>
<circle cx="29.3966" cy="96.1769" r="10.3966" fill="#B272D0" fill-opacity="0.19"/>
<ellipse cx="46.9807" cy="42.3966" rx="9.98073" ry="10.3966" fill="#D4A732" fill-opacity="0.21"/>
<circle cx="47.3966" cy="152.397" r="10.3966" fill="#D4A732" fill-opacity="0.21"/>
<circle cx="47.3966" cy="116.397" r="10.3966" fill="#D4A732" fill-opacity="0.21"/>
<circle cx="47.3966" cy="80.3966" r="10.3966" fill="#D4A732" fill-opacity="0.21"/>
<ellipse cx="299.981" cy="42.3966" rx="9.98073" ry="10.3966" fill="#D4A732" fill-opacity="0.21"/>
<circle cx="299.397" cy="152.397" r="10.3966" fill="#D4A732" fill-opacity="0.21"/>
<circle cx="299.397" cy="116.397" r="10.3966" fill="#D4A732" fill-opacity="0.21"/>
<circle cx="299.397" cy="75.3966" r="10.3966" fill="#D4A732" fill-opacity="0.21"/>
<circle cx="97.6661" cy="15.1617" r="15.1617" fill="#D4A732" fill-opacity="0.21"/>
<circle cx="97.6661" cy="166.779" r="15.1617" fill="#D4A732" fill-opacity="0.21"/>
<circle cx="97.6661" cy="116.528" r="15.1617" fill="#D4A732" fill-opacity="0.21"/>
<circle cx="97.6661" cy="65.4119" r="15.1617" fill="#D4A732" fill-opacity="0.21"/>
<circle cx="240.619" cy="15.1617" r="15.1617" fill="#D4A732" fill-opacity="0.21"/>
<circle cx="240.619" cy="166.779" r="15.1617" fill="#D4A732" fill-opacity="0.21"/>
<circle cx="240.619" cy="116.528" r="15.1617" fill="#D4A732" fill-opacity="0.21"/>
<circle cx="240.619" cy="65.4119" r="15.1617" fill="#D4A732" fill-opacity="0.21"/>
<circle cx="192.968" cy="15.1617" r="15.1617" fill="#D4A732" fill-opacity="0.21"/>
<circle cx="192.968" cy="166.779" r="15.1617" fill="#D4A732" fill-opacity="0.21"/>
<circle cx="192.968" cy="116.528" r="15.1617" fill="#D4A732" fill-opacity="0.21"/>
<circle cx="192.968" cy="65.4119" r="15.1617" fill="#D4A732" fill-opacity="0.21"/>
<circle cx="145.317" cy="15.1617" r="15.1617" fill="#D4A732" fill-opacity="0.21"/>
<circle cx="145.317" cy="166.779" r="15.1617" fill="#D4A732" fill-opacity="0.21"/>
<circle cx="145.317" cy="116.528" r="15.1617" fill="#D4A732" fill-opacity="0.21"/>
<circle cx="145.317" cy="65.4119" r="15.1617" fill="#D4A732" fill-opacity="0.21"/>
<ellipse cx="341.981" cy="42.3966" rx="9.98073" ry="10.3966" fill="#D4A732" fill-opacity="0.21"/>
<circle cx="341.397" cy="152.397" r="10.3966" fill="#D4A732" fill-opacity="0.21"/>
<circle cx="341.397" cy="116.397" r="10.3966" fill="#D4A732" fill-opacity="0.21"/>
<circle cx="341.397" cy="75.3966" r="10.3966" fill="#D4A732" fill-opacity="0.21"/>
<ellipse cx="9.98073" cy="42.3966" rx="9.98073" ry="10.3966" fill="#D4A732" fill-opacity="0.21"/>
<circle cx="10.3966" cy="152.397" r="10.3966" fill="#D4A732" fill-opacity="0.21"/>
<circle cx="10.3966" cy="116.397" r="10.3966" fill="#D4A732" fill-opacity="0.21"/>
<circle cx="10.3966" cy="79.3966" r="10.3966" fill="#D4A732" fill-opacity="0.21"/>
</svg>
