<svg width="368" height="208" viewBox="0 0 368 208" fill="none" xmlns="http://www.w3.org/2000/svg">
<ellipse cx="301.921" cy="149.017" rx="9.98073" ry="10.3966" transform="rotate(-180 301.921 149.017)" fill="#B272D0" fill-opacity="0.19"/>
<circle cx="301.505" cy="38.9869" r="10.3966" transform="rotate(-180 301.505 38.9869)" fill="#B272D0" fill-opacity="0.19"/>
<circle cx="301.505" cy="75.375" r="10.3966" transform="rotate(-180 301.505 75.375)" fill="#B272D0" fill-opacity="0.19"/>
<circle cx="301.505" cy="111.763" r="10.3966" transform="rotate(-180 301.505 111.763)" fill="#B272D0" fill-opacity="0.19"/>
<ellipse cx="47.2048" cy="149.884" rx="9.98073" ry="10.3966" transform="rotate(-180 47.2048 149.884)" fill="#B272D0" fill-opacity="0.19"/>
<circle cx="46.789" cy="39.8533" r="10.3966" transform="rotate(-180 46.789 39.8533)" fill="#B272D0" fill-opacity="0.19"/>
<circle cx="46.789" cy="76.2413" r="10.3966" transform="rotate(-180 46.789 76.2413)" fill="#B272D0" fill-opacity="0.19"/>
<circle cx="46.789" cy="112.629" r="10.3966" transform="rotate(-180 46.789 112.629)" fill="#B272D0" fill-opacity="0.19"/>
<circle cx="245.624" cy="166.778" r="15.1617" transform="rotate(-180 245.624 166.778)" fill="#B272D0" fill-opacity="0.19"/>
<circle cx="245.624" cy="15.1614" r="15.1617" transform="rotate(-180 245.624 15.1614)" fill="#B272D0" fill-opacity="0.19"/>
<circle cx="245.624" cy="65.4116" r="15.1617" transform="rotate(-180 245.624 65.4116)" fill="#B272D0" fill-opacity="0.19"/>
<circle cx="245.624" cy="116.528" r="15.1617" transform="rotate(-180 245.624 116.528)" fill="#B272D0" fill-opacity="0.19"/>
<circle cx="102.671" cy="166.778" r="15.1617" transform="rotate(-180 102.671 166.778)" fill="#B272D0" fill-opacity="0.19"/>
<circle cx="102.671" cy="15.1614" r="15.1617" transform="rotate(-180 102.671 15.1614)" fill="#B272D0" fill-opacity="0.19"/>
<circle cx="102.671" cy="65.4116" r="15.1617" transform="rotate(-180 102.671 65.4116)" fill="#B272D0" fill-opacity="0.19"/>
<circle cx="102.671" cy="116.528" r="15.1617" transform="rotate(-180 102.671 116.528)" fill="#B272D0" fill-opacity="0.19"/>
<circle cx="150.322" cy="166.778" r="15.1617" transform="rotate(-180 150.322 166.778)" fill="#B272D0" fill-opacity="0.19"/>
<circle cx="150.322" cy="15.1614" r="15.1617" transform="rotate(-180 150.322 15.1614)" fill="#B272D0" fill-opacity="0.19"/>
<circle cx="150.322" cy="65.4116" r="15.1617" transform="rotate(-180 150.322 65.4116)" fill="#B272D0" fill-opacity="0.19"/>
<circle cx="150.322" cy="116.528" r="15.1617" transform="rotate(-180 150.322 116.528)" fill="#B272D0" fill-opacity="0.19"/>
<circle cx="197.973" cy="166.778" r="15.1617" transform="rotate(-180 197.973 166.778)" fill="#B272D0" fill-opacity="0.19"/>
<circle cx="197.973" cy="15.1614" r="15.1617" transform="rotate(-180 197.973 15.1614)" fill="#B272D0" fill-opacity="0.19"/>
<circle cx="197.973" cy="65.4116" r="15.1617" transform="rotate(-180 197.973 65.4116)" fill="#B272D0" fill-opacity="0.19"/>
<circle cx="197.973" cy="116.528" r="15.1617" transform="rotate(-180 197.973 116.528)" fill="#B272D0" fill-opacity="0.19"/>
<ellipse cx="10.8166" cy="149.884" rx="9.98073" ry="10.3966" transform="rotate(-180 10.8166 149.884)" fill="#B272D0" fill-opacity="0.19"/>
<circle cx="10.4008" cy="39.8533" r="10.3966" transform="rotate(-180 10.4008 39.8533)" fill="#B272D0" fill-opacity="0.19"/>
<circle cx="10.4008" cy="76.2413" r="10.3966" transform="rotate(-180 10.4008 76.2413)" fill="#B272D0" fill-opacity="0.19"/>
<circle cx="10.4008" cy="112.629" r="10.3966" transform="rotate(-180 10.4008 112.629)" fill="#B272D0" fill-opacity="0.19"/>
<ellipse cx="338.309" cy="149.017" rx="9.98073" ry="10.3966" transform="rotate(-180 338.309 149.017)" fill="#B272D0" fill-opacity="0.19"/>
<circle cx="337.893" cy="38.9869" r="10.3966" transform="rotate(-180 337.893 38.9869)" fill="#B272D0" fill-opacity="0.19"/>
<circle cx="337.893" cy="75.375" r="10.3966" transform="rotate(-180 337.893 75.375)" fill="#B272D0" fill-opacity="0.19"/>
<circle cx="337.893" cy="111.763" r="10.3966" transform="rotate(-180 337.893 111.763)" fill="#B272D0" fill-opacity="0.19"/>
<ellipse cx="320.309" cy="165.543" rx="9.98073" ry="10.3966" transform="rotate(-180 320.309 165.543)" fill="#D4A732" fill-opacity="0.21"/>
<circle cx="319.893" cy="55.5434" r="10.3966" transform="rotate(-180 319.893 55.5434)" fill="#D4A732" fill-opacity="0.21"/>
<circle cx="319.893" cy="91.5434" r="10.3966" transform="rotate(-180 319.893 91.5434)" fill="#D4A732" fill-opacity="0.21"/>
<circle cx="319.893" cy="127.543" r="10.3966" transform="rotate(-180 319.893 127.543)" fill="#D4A732" fill-opacity="0.21"/>
<ellipse cx="67.3093" cy="165.543" rx="9.98073" ry="10.3966" transform="rotate(-180 67.3093 165.543)" fill="#D4A732" fill-opacity="0.21"/>
<circle cx="67.8934" cy="55.5434" r="10.3966" transform="rotate(-180 67.8934 55.5434)" fill="#D4A732" fill-opacity="0.21"/>
<circle cx="67.8934" cy="91.5434" r="10.3966" transform="rotate(-180 67.8934 91.5434)" fill="#D4A732" fill-opacity="0.21"/>
<circle cx="67.8934" cy="132.543" r="10.3966" transform="rotate(-180 67.8934 132.543)" fill="#D4A732" fill-opacity="0.21"/>
<circle cx="269.624" cy="192.778" r="15.1617" transform="rotate(-180 269.624 192.778)" fill="#D4A732" fill-opacity="0.21"/>
<circle cx="269.624" cy="41.1614" r="15.1617" transform="rotate(-180 269.624 41.1614)" fill="#D4A732" fill-opacity="0.21"/>
<circle cx="269.624" cy="91.4116" r="15.1617" transform="rotate(-180 269.624 91.4116)" fill="#D4A732" fill-opacity="0.21"/>
<circle cx="269.624" cy="142.528" r="15.1617" transform="rotate(-180 269.624 142.528)" fill="#D4A732" fill-opacity="0.21"/>
<circle cx="126.671" cy="192.778" r="15.1617" transform="rotate(-180 126.671 192.778)" fill="#D4A732" fill-opacity="0.21"/>
<circle cx="126.671" cy="41.1614" r="15.1617" transform="rotate(-180 126.671 41.1614)" fill="#D4A732" fill-opacity="0.21"/>
<circle cx="126.671" cy="91.4116" r="15.1617" transform="rotate(-180 126.671 91.4116)" fill="#D4A732" fill-opacity="0.21"/>
<circle cx="126.671" cy="142.528" r="15.1617" transform="rotate(-180 126.671 142.528)" fill="#D4A732" fill-opacity="0.21"/>
<circle cx="174.322" cy="192.778" r="15.1617" transform="rotate(-180 174.322 192.778)" fill="#D4A732" fill-opacity="0.21"/>
<circle cx="174.322" cy="41.1614" r="15.1617" transform="rotate(-180 174.322 41.1614)" fill="#D4A732" fill-opacity="0.21"/>
<circle cx="174.322" cy="91.4116" r="15.1617" transform="rotate(-180 174.322 91.4116)" fill="#D4A732" fill-opacity="0.21"/>
<circle cx="174.322" cy="142.528" r="15.1617" transform="rotate(-180 174.322 142.528)" fill="#D4A732" fill-opacity="0.21"/>
<circle cx="221.973" cy="192.778" r="15.1617" transform="rotate(-180 221.973 192.778)" fill="#D4A732" fill-opacity="0.21"/>
<circle cx="221.973" cy="41.1614" r="15.1617" transform="rotate(-180 221.973 41.1614)" fill="#D4A732" fill-opacity="0.21"/>
<circle cx="221.973" cy="91.4116" r="15.1617" transform="rotate(-180 221.973 91.4116)" fill="#D4A732" fill-opacity="0.21"/>
<circle cx="221.973" cy="142.528" r="15.1617" transform="rotate(-180 221.973 142.528)" fill="#D4A732" fill-opacity="0.21"/>
<ellipse cx="25.3093" cy="165.543" rx="9.98073" ry="10.3966" transform="rotate(-180 25.3093 165.543)" fill="#D4A732" fill-opacity="0.21"/>
<circle cx="25.8935" cy="55.5434" r="10.3966" transform="rotate(-180 25.8935 55.5434)" fill="#D4A732" fill-opacity="0.21"/>
<circle cx="25.8935" cy="91.5434" r="10.3966" transform="rotate(-180 25.8935 91.5434)" fill="#D4A732" fill-opacity="0.21"/>
<circle cx="25.8935" cy="132.543" r="10.3966" transform="rotate(-180 25.8935 132.543)" fill="#D4A732" fill-opacity="0.21"/>
<ellipse cx="357.309" cy="165.543" rx="9.98073" ry="10.3966" transform="rotate(-180 357.309 165.543)" fill="#D4A732" fill-opacity="0.21"/>
<circle cx="356.893" cy="55.5434" r="10.3966" transform="rotate(-180 356.893 55.5434)" fill="#D4A732" fill-opacity="0.21"/>
<circle cx="356.893" cy="91.5434" r="10.3966" transform="rotate(-180 356.893 91.5434)" fill="#D4A732" fill-opacity="0.21"/>
<circle cx="356.893" cy="128.543" r="10.3966" transform="rotate(-180 356.893 128.543)" fill="#D4A732" fill-opacity="0.21"/>
</svg>
